<?xml version="1.0" encoding="UTF-8" standalone="no"?>
<!DOCTYPE svg PUBLIC "-//W3C//DTD SVG 1.1//EN" "http://www.w3.org/Graphics/SVG/1.1/DTD/svg11.dtd">
<svg width="100%" height="100%" viewBox="0 0 320 65" version="1.1" xmlns="http://www.w3.org/2000/svg" xmlns:xlink="http://www.w3.org/1999/xlink" xml:space="preserve" xmlns:serif="http://www.serif.com/" style="fill-rule:evenodd;clip-rule:evenodd;stroke-linejoin:round;stroke-miterlimit:2;">
    <g transform="matrix(0.466137,0,0,0.466137,-4.52866,-56.3321)">
        <g transform="matrix(1.29709,-0.00324297,0.00324297,1.29709,-6359.73,-2592.78)">
            <path d="M4979.14,2196.78C4978.34,2196.78 4977.55,2196.75 4976.76,2196.7C4981.42,2191.92 4986.03,2187.18 4990.41,2182.68C4993.19,2179.82 4995.87,2177.05 4998.42,2174.44C5000.95,2171.8 5003.35,2169.32 5005.57,2167.02C5011,2161.4 5015.3,2156.93 5017.83,2154.3C5017.94,2155.49 5018.01,2156.7 5018.01,2157.91C5018.01,2159.36 5017.92,2160.79 5017.77,2162.2C5015.18,2164.69 5010.61,2169.1 5004.81,2174.7C5002.51,2176.92 5000.03,2179.31 4997.4,2181.85C4994.78,2184.4 4992.01,2187.08 4989.15,2189.86C4986.88,2192.07 4984.54,2194.35 4982.17,2196.65C4981.17,2196.73 4980.16,2196.78 4979.14,2196.78ZM4973.76,2196.4C4972.36,2196.21 4970.98,2195.95 4969.63,2195.61C4970.75,2194.45 4971.87,2193.29 4972.99,2192.14C4978.92,2186.05 4984.85,2179.95 4990.41,2174.24C4993.19,2171.38 4995.87,2168.62 4998.42,2165.99C5000.95,2163.37 5003.35,2160.88 5005.57,2158.58C5010.14,2153.84 5013.92,2149.93 5016.51,2147.24C5017.11,2149.34 5017.55,2151.52 5017.78,2153.75C5015.2,2156.24 5010.62,2160.66 5004.81,2166.26C5002.51,2168.48 5000.03,2170.88 4997.4,2173.41C4994.78,2175.96 4992.01,2178.64 4989.15,2181.42C4984.23,2186.22 4979.01,2191.29 4973.76,2196.4ZM4985.39,2196.28C4987.09,2194.53 4988.77,2192.8 4990.41,2191.12C4993.19,2188.26 4995.87,2185.5 4998.42,2182.87C5000.95,2180.24 5003.35,2177.76 5005.57,2175.46C5010.89,2169.94 5015.13,2165.55 5017.68,2162.91C5017.2,2166.66 5016.18,2170.25 5014.7,2173.6C5012.13,2176.08 5008.75,2179.34 5004.81,2183.14C5002.51,2185.35 5000.03,2187.75 4997.4,2190.29C4996.15,2191.5 4994.88,2192.74 4993.57,2194C4990.97,2195.04 4988.24,2195.82 4985.39,2196.28ZM4966.75,2194.76C4965.65,2194.38 4964.56,2193.97 4963.51,2193.5C4963.73,2193.27 4963.95,2193.05 4964.17,2192.82C4967.08,2189.81 4970.04,2186.75 4972.99,2183.7C4978.92,2177.6 4984.85,2171.51 4990.41,2165.8C4993.19,2162.94 4995.87,2160.18 4998.42,2157.56C5000.95,2154.93 5003.35,2152.44 5005.57,2150.15C5008.94,2146.65 5011.87,2143.61 5014.22,2141.17C5015.07,2142.94 5015.78,2144.78 5016.36,2146.69C5013.66,2149.28 5009.67,2153.13 5004.81,2157.83C5002.51,2160.04 5000.03,2162.44 4997.4,2164.97C4994.78,2167.52 4992.01,2170.2 4989.15,2172.98C4983.44,2178.54 4977.35,2184.47 4971.26,2190.4C4969.75,2191.86 4968.25,2193.31 4966.75,2194.76ZM4960.72,2192.15C4959.84,2191.67 4958.97,2191.15 4958.12,2190.6C4960.12,2188.57 4962.14,2186.5 4964.17,2184.38C4967.08,2181.37 4970.04,2178.32 4972.99,2175.26C4978.92,2169.17 4984.85,2163.07 4990.41,2157.36C4993.19,2154.5 4995.87,2151.74 4998.42,2149.12C5000.95,2146.49 5003.35,2144 5005.57,2141.71C5007.61,2139.6 5009.48,2137.65 5011.17,2135.9C5012.2,2137.39 5013.12,2138.95 5013.93,2140.58C5011.47,2142.96 5008.37,2145.95 5004.81,2149.39C5002.51,2151.6 5000.03,2154 4997.4,2156.54C4994.78,2159.08 4992.01,2161.76 4989.15,2164.54C4983.44,2170.1 4977.35,2176.03 4971.26,2181.96C4968.2,2184.92 4965.15,2187.87 4962.14,2190.78C4961.66,2191.24 4961.2,2191.69 4960.72,2192.15ZM4997.66,2192.1C4997.91,2191.83 4998.17,2191.57 4998.42,2191.31C5000.95,2188.68 5003.35,2186.2 5005.57,2183.9C5008.8,2180.54 5011.64,2177.6 5013.94,2175.22C5010.38,2182.38 5004.67,2188.29 4997.66,2192.1ZM4955.52,2188.78C4954.78,2188.2 4954.05,2187.6 4953.35,2186.98C4954.09,2186.24 4954.84,2185.5 4955.6,2184.74C4958.39,2181.89 4961.28,2178.96 4964.17,2175.94C4967.08,2172.93 4970.04,2169.87 4972.99,2166.82C4978.92,2160.73 4984.85,2154.63 4990.41,2148.92C4993.19,2146.06 4995.87,2143.3 4998.42,2140.68C5000.95,2138.05 5003.35,2135.56 5005.57,2133.27C5006.21,2132.6 5006.85,2131.94 5007.46,2131.31C5008.63,2132.55 5009.71,2133.87 5010.71,2135.25C5008.94,2136.97 5006.96,2138.87 5004.81,2140.95C5002.51,2143.16 5000.03,2145.56 4997.4,2148.1C4994.78,2150.64 4992.01,2153.33 4989.15,2156.1C4983.44,2161.66 4977.35,2167.59 4971.26,2173.52C4968.2,2176.48 4965.15,2179.44 4962.14,2182.34C4959.87,2184.51 4957.68,2186.66 4955.52,2188.78ZM4951.06,2184.77C4950.4,2184.08 4949.76,2183.38 4949.15,2182.65C4951.25,2180.62 4953.4,2178.5 4955.6,2176.3C4958.39,2173.46 4961.28,2170.53 4964.17,2167.5C4967.08,2164.49 4970.04,2161.44 4972.99,2158.38C4978.92,2152.29 4984.85,2146.2 4990.41,2140.48C4993.19,2137.63 4995.87,2134.86 4998.42,2132.24C5000.05,2130.54 5001.63,2128.91 5003.14,2127.35C5004.42,2128.35 5005.64,2129.44 5006.79,2130.6C5006.14,2131.22 5005.48,2131.86 5004.81,2132.51C5002.51,2134.72 5000.03,2137.12 4997.4,2139.66C4994.78,2142.2 4992.01,2144.89 4989.15,2147.67C4983.44,2153.22 4977.35,2159.15 4971.26,2165.08C4968.2,2168.04 4965.15,2171 4962.14,2173.91C4959.11,2176.8 4956.18,2179.69 4953.33,2182.48C4952.57,2183.25 4951.81,2184.01 4951.06,2184.77ZM4947.29,2180.18C4946.7,2179.34 4946.15,2178.48 4945.63,2177.6C4946.21,2177.04 4946.8,2176.48 4947.39,2175.91C4950.03,2173.38 4952.77,2170.68 4955.6,2167.87C4958.39,2165.02 4961.28,2162.09 4964.17,2159.06C4967.08,2156.05 4970.04,2153 4972.99,2149.94C4978.92,2143.85 4984.85,2137.76 4990.41,2132.05C4993.11,2129.27 4995.71,2126.59 4998.19,2124.04C4999.57,2124.82 5000.9,2125.67 5002.18,2126.61C5000.65,2128.09 4999.06,2129.62 4997.4,2131.22C4994.78,2133.76 4992.01,2136.45 4989.15,2139.23C4983.44,2144.79 4977.35,2150.72 4971.26,2156.65C4968.2,2159.6 4965.15,2162.56 4962.14,2165.47C4959.11,2168.36 4956.18,2171.25 4953.33,2174.04C4951.25,2176.13 4949.22,2178.18 4947.29,2180.18ZM4944.2,2174.95C4943.7,2173.93 4943.25,2172.88 4942.84,2171.82C4943.08,2171.6 4943.31,2171.38 4943.55,2171.16C4944.79,2169.97 4946.07,2168.73 4947.39,2167.47C4950.03,2164.95 4952.77,2162.24 4955.6,2159.43C4958.39,2156.58 4961.28,2153.65 4964.17,2150.62C4967.08,2147.62 4970.04,2144.56 4972.99,2141.51C4978.92,2135.41 4984.85,2129.32 4990.41,2123.61C4991.13,2122.87 4991.84,2122.14 4992.54,2121.42C4994.02,2121.96 4995.46,2122.6 4996.85,2123.31C4994.39,2125.7 4991.81,2128.2 4989.15,2130.79C4983.44,2136.35 4977.35,2142.28 4971.26,2148.21C4968.2,2151.16 4965.15,2154.12 4962.14,2157.03C4959.11,2159.92 4956.18,2162.81 4953.33,2165.6C4950.52,2168.42 4947.82,2171.17 4945.29,2173.81C4944.92,2174.19 4944.56,2174.57 4944.2,2174.95ZM4941.87,2168.94C4941.5,2167.7 4941.2,2166.44 4940.96,2165.16C4941.8,2164.37 4942.66,2163.55 4943.55,2162.72C4944.79,2161.52 4946.07,2160.29 4947.39,2159.03C4950.03,2156.51 4952.77,2153.8 4955.6,2150.98C4958.39,2148.14 4961.28,2145.21 4964.17,2142.19C4967.08,2139.18 4970.04,2136.12 4972.99,2133.06C4977.39,2128.55 4981.79,2124.03 4986.03,2119.67C4987.64,2119.95 4989.21,2120.33 4990.74,2120.81C4990.22,2121.32 4989.69,2121.83 4989.15,2122.35C4983.44,2127.91 4977.35,2133.84 4971.26,2139.77C4968.2,2142.72 4965.15,2145.68 4962.14,2148.59C4959.11,2151.48 4956.18,2154.38 4953.33,2157.16C4950.52,2159.98 4947.82,2162.73 4945.29,2165.37C4944.12,2166.59 4942.98,2167.78 4941.87,2168.94ZM4940.48,2161.96C4940.34,2160.63 4940.27,2159.28 4940.27,2157.91C4940.27,2157.73 4940.28,2157.54 4940.28,2157.35C4941.34,2156.36 4942.42,2155.34 4943.55,2154.28C4944.79,2153.09 4946.07,2151.86 4947.39,2150.59C4950.03,2148.07 4952.77,2145.36 4955.6,2142.55C4958.39,2139.7 4961.28,2136.77 4964.17,2133.74C4967.08,2130.74 4970.04,2127.68 4972.99,2124.62C4974.8,2122.76 4976.61,2120.91 4978.41,2119.06C4978.65,2119.06 4978.89,2119.04 4979.14,2119.04C4980.65,2119.04 4982.14,2119.14 4983.61,2119.31C4979.57,2123.24 4975.42,2127.28 4971.26,2131.33C4968.2,2134.29 4965.15,2137.24 4962.14,2140.15C4959.11,2143.04 4956.18,2145.94 4953.33,2148.72C4950.52,2151.54 4947.82,2154.29 4945.29,2156.93C4944.02,2158.25 4942.8,2159.53 4941.61,2160.77C4941.22,2161.18 4940.85,2161.57 4940.48,2161.96ZM4940.53,2153.47C4940.76,2151.47 4941.14,2149.52 4941.66,2147.62C4942.27,2147.04 4942.91,2146.44 4943.55,2145.84C4944.79,2144.65 4946.07,2143.42 4947.39,2142.15C4950.03,2139.63 4952.77,2136.92 4955.6,2134.11C4958.39,2131.26 4961.28,2128.33 4964.17,2125.3C4965.74,2123.69 4967.31,2122.06 4968.9,2120.42C4970.87,2119.88 4972.9,2119.49 4974.98,2119.27C4973.74,2120.47 4972.5,2121.68 4971.26,2122.89C4968.2,2125.85 4965.15,2128.8 4962.14,2131.71C4959.11,2134.6 4956.18,2137.5 4953.33,2140.29C4950.52,2143.11 4947.82,2145.85 4945.29,2148.49C4944.02,2149.81 4942.8,2151.09 4941.61,2152.33C4941.24,2152.72 4940.89,2153.09 4940.53,2153.47ZM4943.91,2141.49C4947.78,2133.21 4954.48,2126.51 4962.78,2122.66C4962.56,2122.86 4962.35,2123.07 4962.14,2123.28C4959.11,2126.17 4956.18,2129.06 4953.33,2131.85C4950.52,2134.67 4947.82,2137.41 4945.29,2140.05C4944.82,2140.54 4944.37,2141.02 4943.91,2141.49Z" style="fill:rgb(63,128,210);fill-rule:nonzero;"/>
        </g>
        <g transform="matrix(0.682542,0,0,0.741741,28.7828,3.21122)">
            <text x="215.52px" y="303.434px" style="font-family:'LucidaGrande-Bold', 'Lucida Grande', sans-serif;font-weight:600;font-size:34.513px;fill:rgb(123,123,123);">B<tspan x="239.675px 264.757px 286.688px 300.328px 325.41px 348.049px 369.979px " y="303.434px 303.434px 303.434px 303.434px 303.434px 303.434px 303.434px ">usiness</tspan></text>
            <text x="403.472px" y="303.434px" style="font-family:'LucidaGrande-Bold', 'Lucida Grande', sans-serif;font-weight:600;font-size:34.513px;fill:rgb(123,123,123);">&amp;</text>
            <text x="443.15px" y="303.434px" style="font-family:'LucidaGrande-Bold', 'Lucida Grande', sans-serif;font-weight:600;font-size:34.513px;fill:rgb(123,123,123);">I<tspan x="457.009px 492.893px 528.778px 542.417px 567.6px 585.706px 608.412px 624.815px 638.455px 662.913px " y="303.434px 303.434px 303.434px 303.434px 303.434px 303.434px 303.434px 303.434px 303.434px 303.434px ">mmigration</tspan></text>
            <text x="699.558px" y="303.434px" style="font-family:'LucidaGrande-Bold', 'Lucida Grande', sans-serif;font-weight:600;font-size:34.513px;fill:rgb(123,123,123);">A<tspan x="727.387px 749.318px 771.248px 795.707px 816.492px 830.131px 852.838px 869.241px 891.879px " y="303.434px 303.434px 303.434px 303.434px 303.434px 303.434px 303.434px 303.434px 303.434px ">ssociates</tspan></text>
        </g>
        <g transform="matrix(0.741741,0,0,0.741741,13.3386,-31.2575)">
            <text x="215.52px" y="303.434px" style="font-family:'HKSerif-SemiBold', 'HK Serif';font-weight:600;font-size:82.913px;">C<tspan x="274.637px 320.571px 359.706px 404.396px 448.34px 494.274px 547.918px 573.207px 631.08px 675.77px " y="303.434px 303.434px 303.434px 303.434px 303.434px 303.434px 303.434px 303.434px 303.434px 303.434px ">aravan Law</tspan></text>
        </g>
    </g>
</svg>
